<?xml version="1.0" encoding="UTF-8"?>
<!DOCTYPE svg PUBLIC "-//W3C//DTD SVG 1.1//EN" "http://www.w3.org/Graphics/SVG/1.1/DTD/svg11.dtd">
<!-- Creator: CorelDRAW X7 -->
<svg xmlns="http://www.w3.org/2000/svg" xml:space="preserve" width="93.1316mm" height="20.2301mm" version="1.1" style="shape-rendering:geometricPrecision; text-rendering:geometricPrecision; image-rendering:optimizeQuality; fill-rule:evenodd; clip-rule:evenodd"
viewBox="0 0 3503 761"
 xmlns:xlink="http://www.w3.org/1999/xlink">
 <defs>
  <style type="text/css">
   <![CDATA[
    .fil0 {fill:#32B0E5;fill-rule:nonzero}
    .fil1 {fill:#1D72B7;fill-rule:nonzero}
   ]]>
  </style>
 </defs>
 <g id="Layer_x0020_1">
  <metadata id="CorelCorpID_0Corel-Layer"/>
  <path class="fil0" d="M179 220c-6,-6 -16,-6 -22,0l-153 153c-5,6 -5,16 0,22l153 153c6,6 16,6 22,0l153 -153c6,-6 6,-16 0,-22l-153 -153z"/>
  <path class="fil0" d="M483 635l-101 -101 -48 48c-6,6 -6,16 0,22l152 152c6,6 16,6 22,0l153 -152c6,-6 6,-16 0,-22l-46 -46 -99 99c-9,10 -24,10 -33,0z"/>
  <path class="fil0" d="M751 400l-94 95 45 46c6,5 16,5 22,0l153 -153c6,-6 6,-16 0,-22l-153 -153c-6,-6 -16,-6 -22,0l-52 53 101 101c9,9 9,24 0,33z"/>
  <path class="fil0" d="M516 132l100 99 52 -52c6,-6 6,-16 0,-22l-153 -153c-6,-5 -15,-5 -21,0l-153 153c-6,6 -6,16 0,22l47 47 95 -94c9,-9 24,-9 33,0z"/>
  <path class="fil0" d="M584 309c0,-5 -5,-10 -10,-10l-149 0c-5,0 -10,5 -10,10l0 149c0,6 5,10 10,10l149 0c5,0 10,-4 10,-10l0 -149z"/>
  <path class="fil1" d="M1362 275c0,38 -11,66 -32,82 -19,14 -46,15 -89,15 0,0 -27,1 -36,1 -16,0 -33,-1 -50,-1l-1 0 0 -2 1 -202 1 0c10,0 61,0 69,0 54,0 86,6 105,20 21,16 32,42 32,77l0 10zm-134 -160c-6,0 -128,4 -130,7 -4,4 -6,8 -6,13l0 496c0,4 1,7 4,9 2,3 5,4 8,4l38 0c4,0 6,-1 8,-4 3,-3 4,-6 4,-9l0 -201 1 0c47,1 63,1 74,1l12 0c129,0 183,-47 183,-156l0 -10c0,-101 -64,-150 -196,-150z"/>
  <path class="fil1" d="M1660 369c-11,0 -38,0 -78,-1l-2 0 0 -200 2 0c7,0 60,0 78,0 46,0 81,7 103,22 22,14 33,39 33,74l0 5c0,38 -11,66 -30,82 -21,15 -55,18 -106,18zm216 261l-138 -216 2 0c40,-11 70,-29 89,-54 20,-24 29,-55 29,-91l0 -5c0,-101 -65,-149 -198,-149 -9,0 -128,2 -133,4 -6,2 -8,6 -8,13l0 499c0,4 1,7 3,9 2,3 5,4 8,4l39 0c3,0 6,-1 8,-4 2,-3 3,-6 3,-9l0 -211 2 0c36,2 63,2 78,2l12 0 0 1 111 172c17,28 26,44 28,45 1,2 3,3 5,3 2,1 4,1 8,1l46 0c6,0 8,-3 8,-8 0,-2 -1,-4 -2,-6z"/>
  <path class="fil1" d="M2274 426c0,111 -43,167 -128,167 -86,0 -129,-56 -129,-167l0 -91c0,-111 43,-167 129,-167 85,0 128,56 128,167l0 91zm-128 -314c-59,0 -106,18 -140,55 -35,36 -52,93 -52,168l0 91c0,73 17,128 50,166 33,38 81,57 142,57 61,0 108,-19 141,-57 33,-38 50,-93 50,-166l0 -91c0,-73 -17,-128 -50,-166 -33,-38 -80,-57 -141,-57z"/>
  <path class="fil1" d="M2807 628l-161 -252 0 -1 154 -243c1,-2 2,-4 2,-6 0,-6 -3,-9 -10,-9l-42 0c-3,0 -5,0 -7,1 -2,1 -3,2 -4,3 -1,2 -17,27 -48,78l-79 129 -1 -1 -116 -184c-13,-21 -16,-24 -17,-25 -2,-1 -4,-1 -7,-1l-46 0c-7,0 -10,3 -10,9 0,2 1,4 2,6l157 244 0 1 -158 251c-2,2 -2,4 -2,6 0,7 3,10 10,10l42 0c3,0 6,-1 8,-3 2,-1 10,-14 44,-69l90 -147 2 1 133 213c3,3 6,5 11,5l45 0c7,0 10,-3 10,-9 0,-3 -1,-5 -2,-7z"/>
  <path class="fil1" d="M2965 115l-39 0c-8,0 -12,3 -12,12l0 504c0,4 2,7 4,9 2,3 5,4 8,4l39 0c4,0 7,-1 9,-4 2,-3 3,-6 3,-9l0 -504c0,-9 -4,-12 -12,-12z"/>
  <path class="fil1" d="M3229 378l1 -1 45 -162c9,-34 11,-40 12,-41 1,-2 3,-4 5,-5 2,-1 5,-2 7,-2 3,0 5,1 7,2 2,1 3,2 5,4 1,2 2,3 2,5 1,2 9,32 16,56l40 144 -140 0zm273 253l-132 -465c-9,-34 -32,-50 -71,-50 -39,0 -61,16 -71,51l-132 463c0,2 -1,3 -1,5 0,7 4,10 11,10l42 0c2,0 5,-1 7,-2 3,-2 4,-4 5,-7l55 -203 169 0 0 1 50 182c5,20 8,25 9,27 2,1 4,2 7,2l42 0c7,0 11,-3 11,-10 0,-3 -1,-4 -1,-4z"/>
 </g>
</svg>
